<?xml version="1.0" encoding="UTF-8" standalone="no"?>
<svg
   xmlns:dc="http://purl.org/dc/elements/1.1/"
   xmlns:cc="http://creativecommons.org/ns#"
   xmlns:rdf="http://www.w3.org/1999/02/22-rdf-syntax-ns#"
   xmlns:svg="http://www.w3.org/2000/svg"
   xmlns="http://www.w3.org/2000/svg"
   xmlns:sodipodi="http://sodipodi.sourceforge.net/DTD/sodipodi-0.dtd"
   xmlns:inkscape="http://www.inkscape.org/namespaces/inkscape"
   width="163.45348mm"
   height="163.45348mm"
   viewBox="0 0 163.45348 163.45348"
   version="1.1"
   id="svg1187"
   inkscape:version="1.0.2 (1.0.2+r75+1)"
   sodipodi:docname="needle.svg">
  <defs
     id="defs1181" />
  <sodipodi:namedview
     id="base"
     pagecolor="#ffffff"
     bordercolor="#666666"
     borderopacity="1.0"
     inkscape:pageopacity="0.0"
     inkscape:pageshadow="2"
     inkscape:zoom="0.98994949"
     inkscape:cx="291.85"
     inkscape:cy="288.22784"
     inkscape:document-units="mm"
     inkscape:current-layer="layer1"
     inkscape:document-rotation="0"
     showgrid="false"
     inkscape:window-width="1853"
     inkscape:window-height="1025"
     inkscape:window-x="67"
     inkscape:window-y="27"
     inkscape:window-maximized="1" />
  <metadata
     id="metadata1184">
    <rdf:RDF>
      <cc:Work
         rdf:about="">
        <dc:format>image/svg+xml</dc:format>
        <dc:type
           rdf:resource="http://purl.org/dc/dcmitype/StillImage" />
        <dc:title></dc:title>
      </cc:Work>
    </rdf:RDF>
  </metadata>
  <g
     inkscape:label="Layer 1"
     inkscape:groupmode="layer"
     id="layer1"
     transform="translate(-17.303023,-55.100643)">
    <path
       style="display:inline;fill:#ffffff;fill-opacity:1;fill-rule:evenodd;stroke:#000000;stroke-width:1.05833;stroke-linecap:butt;stroke-linejoin:miter;stroke-miterlimit:4;stroke-dasharray:none;stroke-opacity:1"
       d="m 99.746091,108.52403 c -0.821584,0.14232 -2.664407,-0.10353 -3.6567,2.55278 -1.575726,4.21775 0.890455,12.08217 -1.800701,16.20467 -4.422299,2.75461 -25.570921,3.11502 -27.84094,7.82484 -2.216176,4.59815 -0.775679,7.07573 -0.775679,7.07573 10.545048,0.74737 18.689452,0.52766 30.167924,0.38844 0,0 0.262228,5.94976 0.3048,10.93263 l -0.221642,5.88251 c -0.549698,2.01538 -2.573628,0.95568 -4.044526,1.80356 -1.626606,0.93784 -2.070576,4.44024 -0.05546,4.66161 1.137497,0.12494 2.481898,0.18646 3.822965,0.22196 0.04717,0 0.09139,0 0.138483,0 2.723329,0.0677 7.064165,0.0278 7.064165,0.0278 v -0.0278 c 1.33206,-0.0357 2.69347,-0.0978 3.82293,-0.22196 2.01514,-0.22137 1.54342,-3.75166 -0.0832,-4.68934 -1.48008,-0.8532 -3.50998,0.23543 -4.04454,-1.83131 l -0.22164,-4.63391 c 2.1e-4,-5.16261 0.33244,-12.15351 0.33244,-12.15351 11.47854,0.13923 19.59535,0.38677 30.14027,-0.36068 0,0 1.44049,-2.47753 -0.77568,-7.07573 -2.27002,-4.70982 -23.41864,-5.07013 -27.84092,-7.82484 -2.69109,-4.1225 -0.19732,-11.98686 -1.77296,-16.20467 0.27305,-0.7652 -1.97985,-2.10521 -2.659432,-2.55278 z"
       id="path6492"
       sodipodi:nodetypes="cscscsccssssccssccccsccc" />
    <path
       id="path8270"
       d="m 51.084798,137.68522 12.756648,5e-5"
       style="display:inline;fill:none;fill-rule:evenodd;stroke:#000000;stroke-width:1.32292;stroke-linecap:butt;stroke-linejoin:miter;stroke-miterlimit:4;stroke-dasharray:none;stroke-opacity:1" />
    <path
       style="display:inline;fill:none;fill-rule:evenodd;stroke:#000000;stroke-width:1.32292;stroke-linecap:butt;stroke-linejoin:miter;stroke-miterlimit:4;stroke-dasharray:none;stroke-opacity:1"
       d="m 135.55325,137.68522 12.93159,5e-5"
       id="path8273" />
    <path
       style="display:inline;fill:none;fill-rule:evenodd;stroke:#000000;stroke-width:1.32292;stroke-linecap:butt;stroke-linejoin:miter;stroke-miterlimit:4;stroke-dasharray:none;stroke-opacity:1"
       d="m 99.152208,184.93856 5.3e-5,-10.30758"
       id="path8275" />
    <path
       id="path8277"
       d="m 99.152208,102.91942 5.3e-5,-17.129947"
       style="display:inline;fill:none;fill-rule:evenodd;stroke:#000000;stroke-width:1.32292;stroke-linecap:butt;stroke-linejoin:miter;stroke-miterlimit:4;stroke-dasharray:none;stroke-opacity:1" />
    <path
       style="display:inline;fill:#000000;fill-opacity:1;fill-rule:evenodd;stroke:#fffbfb;stroke-width:0.79375;stroke-linecap:butt;stroke-linejoin:miter;stroke-miterlimit:4;stroke-dasharray:none;stroke-opacity:1"
       d="m 103.71823,56.369995 -4.518556,9.24261 -3.902445,-9.242637 z"
       id="path8279"
       sodipodi:nodetypes="cccc" />
  </g>
</svg>
